<mxfile host="app.diagrams.net" modified="2023-06-04T07:30:44.757Z" agent="Mozilla/5.0 (Windows NT 10.0; Win64; x64) AppleWebKit/537.36 (KHTML, like Gecko) Chrome/114.0.0.0 Safari/537.36" version="21.3.4" etag="8LtXhKDPy6iaDZ05fBbM" type="github">
  <diagram name="Page-1" id="BDh6Ir0X3vtL8eMNXYFj">
    <mxGraphModel>
      <root>
        <mxCell id="0" />
        <mxCell id="1" parent="0" />
      </root>
    </mxGraphModel>
  </diagram>
</mxfile>
